**ABCDEFGHIJKLMNOPQRSTUVWXYZabcdefghijklmnopqrstuvwxyz**************************
**PARASOLID !"#$%&'()*+,-./:;<=>?@[\]^_`{|}~0123456789**************************
**PART1;
MC=AMD64;
MC_MODEL=Intel64 Family 6 Model 58 Stepping 9, GenuineIntel;
MC_ID=unknown;
OS=Windows_NT;
OS_RELEASE=unknown;
FRU=Parasolid Version 27.0, build 178,  8-16-2014;
APPL=SOLIDWORKS 2015-2014271;
SITE=;
USER=unknown;
FORMAT=text;
GUISE=transmit;
KEY=makeProjectedPlanarWire;
FILE=makeProjectedPlanarWire.x_t;
DATE=Thu Nov 02 17:06:39 2017;
**PART2;
SCH=SCH_2700178_26105;
USFLD_SIZE=0;
**PART3;
**END_OF_HEADER*****************************************************************
T51 : TRANSMIT FILE created by modeller version 270017823 SCH_2700178_26105_1300
6196 0 12 30 CCCCCCCCCCCCCDI5 owner1040 0 CCCCCCCCCA13 boundary_mesh1006 0 A16 i
ndex_map_offset0 0 1 dA9 index_map82 0 A17 node_id_index_map82 0 A20 schema_embe
dding_map82 0 A5 child12 0 A14 lowest_node_id0 0 1 dZ1 38 2 3 0 0 0 0 1e3 1e-8 0
 4 0 1 0 3 1 5 6 7 8 9 10 11 0 0 0 0 0 0 0 81 255 2 2 14 12 1 0 0 0 0 13 0 70 11
 CI9 list_type0 0 1 uI10 notransmit0 0 1 lCCCDCCDI12 finger_index0 0 1 dI12 fing
er_block1012 0 CZ3 0 4 T1 0 0 1 20 1 14 14 13 255 5 19 0 1 0 15 0 0 9 15 51 255
 6 2 0 15 0 0 0 +-.481924770269952 .021875 -497503035279575e-33 -1 0 0 .006875 0
 0 1 31 255 7 10 0 10 16 0 0 +.01003 .021875 -497503035279575e-33 -1 0 0 0 0 1 .
006875 29 255 8 36 0 11 17 0 .0171844718686944 .028277276206574 .002505291275428
11 19 8 CCCCCCCA5 owner12 0 Z9 18 0 1 0 0 5 V0 16 255 10 9 0 ?18 0 19 7 0 0 1 18
 255 11 34 0 20 0 21 8 ?1 17 255 20 0 0 0 0 11 22 23 0 24 -18 21 31 0 22 11 25 1
7 ?1 17 22 0 26 27 24 21 20 23 0 28 +18 25 28 0 27 21 29 30 ?1 29 17 33 0 21 30
 8 .0171844718686944 .028277276206574 -.00250529127542812 29 30 30 0 25 31 17 .0
171844718686944 .021875 -.006875 29 31 27 0 29 32 30 .0171844718686944 .01547272
3793426 -.00250529127542814 18 29 25 0 33 25 34 31 ?1 29 32 24 0 34 35 31 .01718
44718686944 .015472723793426 .0025052912754281 18 34 22 0 36 29 37 32 ?1 29 35 2
1 0 37 0 32 .0171844718686944 .021875 .006875 18 37 20 0 38 34 0 35 ?1 17 38 0 2
6 24 36 37 39 40 0 41 +15 255 26 5 0 24 15 42 17 24 0 26 22 38 11 41 19 0 0 +17
 36 0 26 38 33 34 43 44 0 39 +17 39 0 0 0 0 34 38 40 0 0 -16 40 23 0 ?38 44 0 16
 19 44 1 17 41 0 0 0 0 37 24 19 0 0 -16 19 7 0 ?24 10 23 16 23 40 1 16 23 35 0 ?
22 19 45 16 45 19 1 31 16 8 0 19 0 7 0 +.0171844718686944 .021875 -4975030352795
75e-33 -1 0 0 0 0 1 .006875 16 45 32 0 ?27 23 46 16 46 23 1 17 27 0 26 33 22 25
 28 45 0 47 +16 46 29 0 ?33 45 44 16 44 45 1 17 33 0 26 36 27 29 47 46 0 43 +16
 44 26 0 ?36 46 40 16 40 46 1 17 47 0 0 0 0 25 33 46 0 0 -17 43 0 0 0 0 29 36 44
 0 0 -17 28 0 0 0 0 21 27 45 0 0 -14 255 15 1 0 ?0 0 26 5 6 +0 0 0 0 5 15 42 6 0
 48 15 0 17 48 0 42 48 48 0 18 10 0 0 -17 18 0 0 0 0 0 48 10 0 0 +74 4 CI16 inde
x_map_offset0 0 1 dCCZ20 14 1 0 0 2 0 0 0 0 0 0 0 0 0 0 0 0 0 0 0 0 0 0 0 80 255
 2 12 49 50 8004 0 0 0 0 3 5 0 0 0 FFTFFFFFFFFFFF2 3 83 255 1 13 1 79 255 16 50
 SDL/TYSA_DENSITY1 0 
